<?xml version="1.0" encoding="UTF-8" standalone="no"?>
<!-- Uploaded to: SVG Repo, www.svgrepo.com, Transformed by: SVG Repo Mixer Tools -->

<svg
   width="256px"
   height="256px"
   viewBox="-51.2 -51.2 614.40 614.40"
   version="1.1"
   fill="#ffffff"
   stroke="#ffffff"
   id="svg1"
   sodipodi:docname="icon.svg"
   inkscape:version="1.4.2 (f4327f4, 2025-05-13)"
   xmlns:inkscape="http://www.inkscape.org/namespaces/inkscape"
   xmlns:sodipodi="http://sodipodi.sourceforge.net/DTD/sodipodi-0.dtd"
   xmlns="http://www.w3.org/2000/svg"
   xmlns:svg="http://www.w3.org/2000/svg">
  <defs
     id="defs1" />
  <sodipodi:namedview
     id="namedview1"
     pagecolor="#ffffff"
     bordercolor="#000000"
     borderopacity="0.25"
     inkscape:showpageshadow="2"
     inkscape:pageopacity="0.0"
     inkscape:pagecheckerboard="0"
     inkscape:deskcolor="#d1d1d1"
     inkscape:zoom="1.7889802"
     inkscape:cx="93.069786"
     inkscape:cy="146.73164"
     inkscape:window-width="1680"
     inkscape:window-height="987"
     inkscape:window-x="-8"
     inkscape:window-y="-8"
     inkscape:window-maximized="1"
     inkscape:current-layer="svg1" />
  <g
     id="SVGRepo_bgCarrier"
     stroke-width="0"
     transform="matrix(0.74182452,0,0,0.74182452,66.092923,66.176769)">
    <rect
       x="-157.59889"
       y="-157.59889"
       width="827.19781"
       height="827.19781"
       rx="107.53572"
       fill="#26004d"
       strokewidth="0"
       id="rect1"
       style="stroke-width:0" />
  </g>
  <g
     id="SVGRepo_tracerCarrier"
     stroke-linecap="round"
     stroke-linejoin="round"
     stroke="#d60000"
     stroke-width="7.168000000000001" />
  <g
     id="SVGRepo_iconCarrier">
    <title
       id="title1">ai</title>
    <g
       id="Page-1"
       stroke-width="0.00512"
       fill="none"
       fill-rule="evenodd">
      <g
         id="icon"
         fill="#e3e3e3"
         transform="translate(64.000000, 64.000000)">
        <path
           d="M 364.33286,19.667128 V 364.33286 H 19.667129 V 19.667128 Z M 164.73557,105.83356 H 131.16898 L 67.441079,278.16643 H 97.723988 L 109.75554,244.4767 h 76.2869 l 11.77326,33.68973 h 32.10719 z m 118.94252,0 h -30.1613 v 172.33287 h 30.1613 z m -135.98012,28.91322 30.04288,85.9749 h -59.60833 z m 245.35704,143.41965 h 57.44429 v 57.44428 H 393.05501 Z M 48.389267,393.05502 H 105.83356 V 450.4993 H 48.389267 Z m 114.888573,0 h 57.4443 v 57.44428 h -57.4443 z M 48.389267,-66.499306 h 57.444293 v 57.44429 H 48.389267 Z M 278.16642,393.05502 h 57.44431 V 450.4993 H 278.16642 Z M 163.27784,-66.499306 h 57.4443 v 57.44429 h -57.4443 z m 114.88858,0 h 57.44431 v 57.44429 H 278.16642 Z M 393.05501,163.27785 h 57.44429 v 57.44429 H 393.05501 Z M -66.499306,278.16643 h 57.4442889 v 57.44428 H -66.499306 Z M 393.05501,48.389273 H 450.4993 V 105.83356 H 393.05501 Z M -66.499306,163.27785 h 57.4442889 v 57.44429 H -66.499306 Z m 0,-114.888577 H -9.0550171 V 105.83356 H -66.499306 Z"
           id="Combined-Shape"
           style="stroke-width:0.00689332" />
      </g>
    </g>
  </g>
</svg>
